<svg width="18" height="15" viewBox="0 0 18 15" fill="none" xmlns="http://www.w3.org/2000/svg">
<g clip-path="url(#clip0_29_101367)">
<path d="M18.0864 7.41666L11.4182 0.748415C10.8643 0.194498 9.96893 0.194498 9.41501 0.748415C8.86109 1.30233 8.86109 2.19766 9.41501 2.75158L12.6634 6L1.91659 6C1.13459 6 0.499926 6.63325 0.499926 7.41666C0.499926 8.20008 1.13459 8.83333 1.91659 8.83333L12.6634 8.83333L9.41501 12.0817C9.13876 12.358 8.99993 12.7207 8.99993 13.0833C8.99993 13.446 9.13876 13.8087 9.41501 14.0849C9.96893 14.6388 10.8643 14.6388 11.4182 14.0849L18.0864 7.41666Z" fill="#14161A"/>
</g>
<defs>
<clipPath id="clip0_29_101367">
<rect width="15" height="18" fill="white" transform="matrix(0 1 -1 0 18 0)"/>
</clipPath>
</defs>
</svg>
